<?xml version="1.0" encoding="UTF-8"?>
<svg xmlns="http://www.w3.org/2000/svg" width="892" height="311" viewBox="0 0 892 311" fill="none">
  <path d="M46.142 150H65.062V76.63H48.672L23.042 101.93L33.822 113.26L46.142 100.83V150ZM71.531 150H129.061V133.5H100.791C120.481 120.74 128.511 111.17 128.511 99.95C128.511 85.21 116.081 75.53 98.811 75.53C88.581 75.53 76.921 79.16 69.111 87.74L79.561 100.28C84.841 95.33 91.001 92.25 98.811 92.25C104.531 92.25 109.261 94.89 109.261 99.95C109.261 107.21 103.321 112.27 71.531 135.26V150Z" fill="#F1F2F2"></path>
  <path d="M49.69 175.95L49.196 178.914C49.612 179.018 50.444 179.096 50.834 179.096C52.992 179.044 54.656 178.42 55.592 176.054L61.494 161.442H57.932L54.656 170.178L51.38 161.442H47.844L52.94 174.182L52.472 175.248C52.16 175.924 51.588 176.158 50.73 176.158C50.418 176.158 49.976 176.08 49.69 175.95ZM61.512 167.708C61.512 171.738 64.398 174.312 68.22 174.312C70.17 174.312 72.146 173.714 73.394 172.57L71.938 170.438C71.132 171.218 69.754 171.686 68.584 171.686C66.452 171.686 65.178 170.36 64.97 168.774H74.304V168.046C74.304 163.938 71.756 161.13 68.012 161.13C64.19 161.13 61.512 164.068 61.512 167.708ZM68.012 163.756C70.196 163.756 71.028 165.342 71.106 166.538H64.918C65.074 165.29 65.958 163.756 68.012 163.756ZM83.579 174H86.881V165.888C86.881 162.274 84.255 161.13 81.395 161.13C79.419 161.13 77.443 161.754 75.909 163.106L77.157 165.316C78.223 164.328 79.471 163.834 80.823 163.834C82.487 163.834 83.579 164.666 83.579 165.94V167.682C82.747 166.668 81.265 166.148 79.601 166.148C77.599 166.148 75.233 167.214 75.233 170.152C75.233 172.96 77.599 174.312 79.601 174.312C81.239 174.312 82.721 173.714 83.579 172.7V174ZM83.579 170.984C83.033 171.712 81.993 172.076 80.927 172.076C79.627 172.076 78.561 171.4 78.561 170.23C78.561 169.008 79.627 168.332 80.927 168.332C81.993 168.332 83.033 168.696 83.579 169.424V170.984ZM89.506 174H92.808V165.706C93.354 164.9 94.81 164.276 95.902 164.276C96.266 164.276 96.578 164.328 96.812 164.38V161.156C95.252 161.156 93.692 162.04 92.808 163.158V161.442H89.506V174ZM97.134 172.362C98.46 173.584 100.566 174.312 102.75 174.312C106.234 174.312 108.184 172.57 108.184 170.282C108.184 167.162 105.298 166.59 103.14 166.174C101.736 165.888 100.748 165.602 100.748 164.822C100.748 164.094 101.528 163.652 102.724 163.652C104.258 163.652 105.688 164.302 106.442 165.108L107.768 162.846C106.52 161.858 104.83 161.13 102.698 161.13C99.396 161.13 97.55 162.976 97.55 165.082C97.55 168.072 100.332 168.592 102.49 169.008C103.92 169.294 105.012 169.606 105.012 170.49C105.012 171.27 104.336 171.764 102.906 171.764C101.346 171.764 99.474 170.906 98.564 170.048L97.134 172.362Z" fill="#F1F2F2"></path>
  <path d="M59.612 62.006C59.612 65.624 62.258 68.216 65.876 68.216C69.512 68.216 72.158 65.624 72.158 62.006C72.158 58.388 69.512 55.796 65.876 55.796C62.258 55.796 59.612 58.388 59.612 62.006ZM69.53 62.006C69.53 64.238 68.09 65.948 65.876 65.948C63.662 65.948 62.24 64.238 62.24 62.006C62.24 59.756 63.662 58.064 65.876 58.064C68.09 58.064 69.53 59.756 69.53 62.006ZM75.698 68H78.164L81.656 59.306H79.19L76.922 65.354L74.654 59.306H72.206L75.698 68ZM81.668 63.644C81.668 66.434 83.666 68.216 86.312 68.216C87.662 68.216 89.03 67.802 89.894 67.01L88.886 65.534C88.328 66.074 87.374 66.398 86.564 66.398C85.088 66.398 84.206 65.48 84.062 64.382H90.524V63.878C90.524 61.034 88.76 59.09 86.168 59.09C83.522 59.09 81.668 61.124 81.668 63.644ZM86.168 60.908C87.68 60.908 88.256 62.006 88.31 62.834H84.026C84.134 61.97 84.746 60.908 86.168 60.908ZM91.725 68H94.011V62.258C94.389 61.7 95.397 61.268 96.153 61.268C96.405 61.268 96.621 61.304 96.783 61.34V59.108C95.703 59.108 94.623 59.72 94.011 60.494V59.306H91.725V68Z" fill="#F1F2F2"></path>
  <path d="M4.57602 194.192C7.05602 194.192 8.56003 192.352 8.56003 190.128C8.56003 187.92 7.05602 186.08 4.57602 186.08C2.12802 186.08 0.608032 187.92 0.608032 190.128C0.608032 192.352 2.12802 194.192 4.57602 194.192ZM4.57602 192.704C3.15202 192.704 2.35202 191.504 2.35202 190.128C2.35202 188.768 3.15202 187.568 4.57602 187.568C6.01602 187.568 6.81604 188.768 6.81604 190.128C6.81604 191.504 6.01602 192.704 4.57602 192.704ZM10.86 194H12.54V187.744H14.108V186.272H12.54V185.84C12.54 184.976 12.956 184.544 13.612 184.544C13.852 184.544 14.092 184.592 14.284 184.704L14.652 183.472C14.316 183.28 13.836 183.168 13.308 183.168C11.884 183.168 10.86 184.112 10.86 185.84V186.272H9.58002V187.744H10.86V194ZM27.491 194H29.539L25.347 183.328H23.011L18.819 194H20.867L21.651 191.952H26.707L27.491 194ZM24.179 184.912L26.179 190.304H22.179L24.179 184.912ZM30.905 194H32.777V183.328H30.905V194ZM44.947 194H46.627V183.328H44.947V187.344C44.323 186.528 43.427 186.08 42.467 186.08C40.467 186.08 39.027 187.648 39.027 190.144C39.027 192.688 40.483 194.192 42.467 194.192C43.459 194.192 44.355 193.712 44.947 192.944V194ZM44.947 191.68C44.563 192.256 43.747 192.704 42.947 192.704C41.619 192.704 40.771 191.632 40.771 190.144C40.771 188.64 41.619 187.568 42.947 187.568C43.747 187.568 44.563 188.032 44.947 188.608V191.68ZM53.724 194H55.404V188.88C55.404 186.8 53.9 186.08 52.188 186.08C50.956 186.08 49.836 186.48 48.94 187.328L49.628 188.496C50.3 187.84 51.052 187.52 51.916 187.52C52.988 187.52 53.724 188.064 53.724 188.96V190.112C53.164 189.456 52.268 189.12 51.228 189.12C49.964 189.12 48.54 189.856 48.54 191.632C48.54 193.344 49.964 194.192 51.228 194.192C52.252 194.192 53.148 193.824 53.724 193.168V194ZM53.724 192.24C53.34 192.768 52.62 193.04 51.884 193.04C50.94 193.04 50.236 192.496 50.236 191.664C50.236 190.816 50.94 190.272 51.884 190.272C52.62 190.272 53.34 190.544 53.724 191.072V192.24ZM60.102 194.192C60.886 194.192 61.382 193.984 61.686 193.696L61.286 192.432C61.158 192.576 60.854 192.704 60.534 192.704C60.054 192.704 59.798 192.32 59.798 191.792V187.744H61.366V186.272H59.798V184.16H58.118V186.272H56.838V187.744H58.118V192.208C58.118 193.488 58.806 194.192 60.102 194.192ZM67.811 194H69.491V188.88C69.491 186.8 67.987 186.08 66.275 186.08C65.043 186.08 63.923 186.48 63.027 187.328L63.715 188.496C64.387 187.84 65.139 187.52 66.003 187.52C67.075 187.52 67.811 188.064 67.811 188.96V190.112C67.251 189.456 66.355 189.12 65.315 189.12C64.051 189.12 62.627 189.856 62.627 191.632C62.627 193.344 64.051 194.192 65.315 194.192C66.339 194.192 67.235 193.824 67.811 193.168V194ZM67.811 192.24C67.427 192.768 66.707 193.04 65.971 193.04C65.027 193.04 64.323 192.496 64.323 191.664C64.323 190.816 65.027 190.272 65.971 190.272C66.707 190.272 67.427 190.544 67.811 191.072V192.24ZM75.699 190.128C75.699 192.576 77.427 194.192 79.747 194.192C80.979 194.192 82.115 193.808 82.883 193.072L82.115 191.968C81.571 192.512 80.675 192.816 79.923 192.816C78.467 192.816 77.587 191.856 77.459 190.688H83.427V190.288C83.427 187.856 81.939 186.08 79.619 186.08C77.331 186.08 75.699 187.888 75.699 190.128ZM79.619 187.456C81.139 187.456 81.763 188.592 81.795 189.504H77.443C77.523 188.56 78.179 187.456 79.619 187.456ZM89.524 194H91.412L88.564 190.032L91.236 186.272H89.348L87.524 188.896L85.684 186.272H83.796L86.468 190.032L83.636 194H85.508L87.524 191.152L89.524 194ZM94.462 196.944V192.928C95.086 193.76 95.966 194.192 96.942 194.192C98.942 194.192 100.366 192.672 100.366 190.128C100.366 187.584 98.942 186.08 96.942 186.08C95.934 186.08 95.038 186.56 94.462 187.328V186.272H92.782V196.944H94.462ZM98.622 190.128C98.622 191.632 97.774 192.704 96.446 192.704C95.662 192.704 94.83 192.224 94.462 191.664V188.608C94.83 188.032 95.662 187.568 96.446 187.568C97.774 187.568 98.622 188.64 98.622 190.128ZM101.783 190.128C101.783 192.576 103.511 194.192 105.831 194.192C107.063 194.192 108.199 193.808 108.967 193.072L108.199 191.968C107.655 192.512 106.759 192.816 106.007 192.816C104.551 192.816 103.671 191.856 103.543 190.688H109.511V190.288C109.511 187.856 108.023 186.08 105.703 186.08C103.415 186.08 101.783 187.888 101.783 190.128ZM105.703 187.456C107.223 187.456 107.847 188.592 107.879 189.504H103.527C103.607 188.56 104.263 187.456 105.703 187.456ZM111.369 194H113.049V188.736C113.385 188.192 114.329 187.712 115.033 187.712C115.241 187.712 115.417 187.728 115.561 187.76V186.096C114.553 186.096 113.625 186.672 113.049 187.408V186.272H111.369V194ZM117.948 185.088C118.524 185.088 118.988 184.624 118.988 184.048C118.988 183.472 118.524 183.008 117.948 183.008C117.388 183.008 116.908 183.472 116.908 184.048C116.908 184.624 117.388 185.088 117.948 185.088ZM117.116 194H118.796V186.272H117.116V194ZM120.696 190.128C120.696 192.576 122.424 194.192 124.744 194.192C125.976 194.192 127.112 193.808 127.88 193.072L127.112 191.968C126.568 192.512 125.672 192.816 124.92 192.816C123.464 192.816 122.584 191.856 122.456 190.688H128.424V190.288C128.424 187.856 126.936 186.08 124.616 186.08C122.328 186.08 120.696 187.888 120.696 190.128ZM124.616 187.456C126.136 187.456 126.76 188.592 126.792 189.504H122.44C122.52 188.56 123.176 187.456 124.616 187.456ZM135.498 194H137.178V188.56C137.178 186.976 136.346 186.08 134.682 186.08C133.466 186.08 132.474 186.72 131.962 187.328V186.272H130.282V194H131.962V188.608C132.346 188.08 133.082 187.568 133.946 187.568C134.89 187.568 135.498 187.968 135.498 189.168V194ZM139.08 190.128C139.08 192.48 140.728 194.192 143.08 194.192C144.584 194.192 145.496 193.552 146.04 192.816L144.936 191.792C144.504 192.384 143.912 192.704 143.16 192.704C141.752 192.704 140.824 191.632 140.824 190.128C140.824 188.624 141.752 187.568 143.16 187.568C143.912 187.568 144.504 187.872 144.936 188.48L146.04 187.456C145.496 186.72 144.584 186.08 143.08 186.08C140.728 186.08 139.08 187.792 139.08 190.128ZM147.233 190.128C147.233 192.576 148.961 194.192 151.281 194.192C152.513 194.192 153.649 193.808 154.417 193.072L153.649 191.968C153.105 192.512 152.209 192.816 151.457 192.816C150.001 192.816 149.121 191.856 148.993 190.688H154.961V190.288C154.961 187.856 153.473 186.08 151.153 186.08C148.865 186.08 147.233 187.888 147.233 190.128ZM151.153 187.456C152.673 187.456 153.297 188.592 153.329 189.504H148.977C149.057 188.56 149.713 187.456 151.153 187.456Z" fill="#F1F2F2"></path>
  <path d="M396.884 50H404.436V48.032H399.156V45.552H404.324V43.6H399.156V41.28H404.436V39.328H396.884V50ZM410.948 50H413.22L410.452 46.032L413.044 42.272H410.772L409.188 44.656L407.588 42.272H405.316L407.892 46.032L405.156 50H407.412L409.188 47.392L410.948 50ZM416.259 52.944V49.008C416.883 49.808 417.731 50.192 418.643 50.192C420.627 50.192 422.067 48.704 422.067 46.128C422.067 43.552 420.627 42.08 418.643 42.08C417.699 42.08 416.851 42.496 416.259 43.248V42.272H414.227V52.944H416.259ZM419.955 46.128C419.955 47.472 419.171 48.384 418.003 48.384C417.347 48.384 416.595 47.984 416.259 47.504V44.768C416.595 44.272 417.347 43.888 418.003 43.888C419.171 43.888 419.955 44.8 419.955 46.128ZM423.09 46.128C423.09 48.608 424.866 50.192 427.218 50.192C428.418 50.192 429.634 49.824 430.402 49.12L429.506 47.808C429.01 48.288 428.162 48.576 427.442 48.576C426.13 48.576 425.346 47.76 425.218 46.784H430.962V46.336C430.962 43.808 429.394 42.08 427.09 42.08C424.738 42.08 423.09 43.888 423.09 46.128ZM427.09 43.696C428.434 43.696 428.946 44.672 428.994 45.408H425.186C425.282 44.64 425.826 43.696 427.09 43.696ZM432.43 50H434.462V44.896C434.798 44.4 435.694 44.016 436.366 44.016C436.59 44.016 436.782 44.048 436.926 44.08V42.096C435.966 42.096 435.006 42.64 434.462 43.328V42.272H432.43V50ZM439.204 41.136C439.876 41.136 440.42 40.592 440.42 39.92C440.42 39.248 439.876 38.704 439.204 38.704C438.548 38.704 437.988 39.248 437.988 39.92C437.988 40.592 438.548 41.136 439.204 41.136ZM438.196 50H440.228V42.272H438.196V50ZM441.746 46.128C441.746 48.608 443.522 50.192 445.874 50.192C447.074 50.192 448.29 49.824 449.058 49.12L448.162 47.808C447.666 48.288 446.818 48.576 446.098 48.576C444.786 48.576 444.002 47.76 443.874 46.784H449.618V46.336C449.618 43.808 448.05 42.08 445.746 42.08C443.394 42.08 441.746 43.888 441.746 46.128ZM445.746 43.696C447.09 43.696 447.602 44.672 447.65 45.408H443.842C443.938 44.64 444.482 43.696 445.746 43.696ZM456.302 50H458.334V44.544C458.334 43.04 457.518 42.08 455.822 42.08C454.558 42.08 453.614 42.688 453.118 43.28V42.272H451.086V50H453.118V44.8C453.454 44.336 454.078 43.888 454.878 43.888C455.742 43.888 456.302 44.256 456.302 45.328V50ZM459.856 46.128C459.856 48.512 461.568 50.192 463.952 50.192C465.536 50.192 466.496 49.504 467.008 48.784L465.68 47.552C465.312 48.064 464.752 48.384 464.048 48.384C462.816 48.384 461.952 47.472 461.952 46.128C461.952 44.784 462.816 43.888 464.048 43.888C464.752 43.888 465.312 44.176 465.68 44.72L467.008 43.472C466.496 42.768 465.536 42.08 463.952 42.08C461.568 42.08 459.856 43.76 459.856 46.128ZM467.84 46.128C467.84 48.608 469.616 50.192 471.968 50.192C473.168 50.192 474.384 49.824 475.152 49.12L474.256 47.808C473.76 48.288 472.912 48.576 472.192 48.576C470.88 48.576 470.096 47.76 469.968 46.784H475.712V46.336C475.712 43.808 474.144 42.08 471.84 42.08C469.488 42.08 467.84 43.888 467.84 46.128ZM471.84 43.696C473.184 43.696 473.696 44.672 473.744 45.408H469.936C470.032 44.64 470.576 43.696 471.84 43.696ZM387.8 68H389.96L392.312 60.272H390.2L388.76 65.472L387.064 60.272H385.256L383.56 65.472L382.12 60.272H380.008L382.36 68H384.536L386.168 62.736L387.8 68ZM396.897 68.192C399.457 68.192 400.993 66.336 400.993 64.128C400.993 61.936 399.457 60.08 396.897 60.08C394.353 60.08 392.817 61.936 392.817 64.128C392.817 66.336 394.353 68.192 396.897 68.192ZM396.897 66.384C395.633 66.384 394.929 65.344 394.929 64.128C394.929 62.928 395.633 61.888 396.897 61.888C398.161 61.888 398.881 62.928 398.881 64.128C398.881 65.344 398.161 66.384 396.897 66.384ZM402.5 68H404.532V62.896C404.868 62.4 405.764 62.016 406.436 62.016C406.66 62.016 406.852 62.048 406.996 62.08V60.096C406.036 60.096 405.076 60.64 404.532 61.328V60.272H402.5V68ZM413.274 68H415.818L412.666 63.776L415.722 60.272H413.226L410.298 63.712V57.328H408.266V68H410.298V66.016L411.226 65.024L413.274 68ZM417.836 59.136C418.508 59.136 419.052 58.592 419.052 57.92C419.052 57.248 418.508 56.704 417.836 56.704C417.18 56.704 416.62 57.248 416.62 57.92C416.62 58.592 417.18 59.136 417.836 59.136ZM416.828 68H418.86V60.272H416.828V68ZM426.091 68H428.123V62.544C428.123 61.04 427.307 60.08 425.611 60.08C424.347 60.08 423.403 60.688 422.907 61.28V60.272H420.875V68H422.907V62.8C423.243 62.336 423.867 61.888 424.667 61.888C425.531 61.888 426.091 62.256 426.091 63.328V68ZM429.981 69.984C430.957 70.832 431.981 71.136 433.309 71.136C435.213 71.136 437.485 70.416 437.485 67.472V60.272H435.437V61.264C434.813 60.48 433.981 60.08 433.053 60.08C431.101 60.08 429.645 61.488 429.645 64.016C429.645 66.592 431.117 67.952 433.053 67.952C433.997 67.952 434.829 67.504 435.437 66.736V67.52C435.437 69.04 434.285 69.472 433.309 69.472C432.333 69.472 431.517 69.2 430.893 68.512L429.981 69.984ZM435.437 65.264C435.101 65.76 434.365 66.144 433.693 66.144C432.541 66.144 431.741 65.344 431.741 64.016C431.741 62.688 432.541 61.888 433.693 61.888C434.365 61.888 435.101 62.256 435.437 62.768V65.264ZM444.602 59.136C445.274 59.136 445.818 58.592 445.818 57.92C445.818 57.248 445.274 56.704 444.602 56.704C443.946 56.704 443.386 57.248 443.386 57.92C443.386 58.592 443.946 59.136 444.602 59.136ZM443.594 68H445.626V60.272H443.594V68ZM452.857 68H454.889V62.544C454.889 61.04 454.073 60.08 452.377 60.08C451.113 60.08 450.169 60.688 449.673 61.28V60.272H447.641V68H449.673V62.8C450.009 62.336 450.633 61.888 451.433 61.888C452.297 61.888 452.857 62.256 452.857 63.328V68ZM464.584 68.192C467.144 68.192 468.68 66.336 468.68 64.128C468.68 61.936 467.144 60.08 464.584 60.08C462.04 60.08 460.504 61.936 460.504 64.128C460.504 66.336 462.04 68.192 464.584 68.192ZM464.584 66.384C463.32 66.384 462.616 65.344 462.616 64.128C462.616 62.928 463.32 61.888 464.584 61.888C465.848 61.888 466.568 62.928 466.568 64.128C466.568 65.344 465.848 66.384 464.584 66.384ZM472.188 68H474.38L477.484 60.272H475.292L473.276 65.648L471.26 60.272H469.084L472.188 68ZM477.895 64.128C477.895 66.608 479.671 68.192 482.023 68.192C483.223 68.192 484.439 67.824 485.207 67.12L484.311 65.808C483.815 66.288 482.967 66.576 482.247 66.576C480.935 66.576 480.151 65.76 480.023 64.784H485.767V64.336C485.767 61.808 484.199 60.08 481.895 60.08C479.543 60.08 477.895 61.888 477.895 64.128ZM481.895 61.696C483.239 61.696 483.751 62.672 483.799 63.408H479.991C480.087 62.64 480.631 61.696 481.895 61.696ZM487.235 68H489.267V62.896C489.603 62.4 490.499 62.016 491.171 62.016C491.395 62.016 491.587 62.048 491.731 62.08V60.096C490.771 60.096 489.811 60.64 489.267 61.328V60.272H487.235V68Z" fill="#F1F2F2"></path>
  <path d="M372.713 150V100.83L360.393 113.26L349.613 101.93L375.243 76.63H391.633V150H372.713ZM430.773 150V136.58H395.683V121.84L423.513 76.63H449.803V119.97H458.713V136.58H449.803V150H430.773ZM430.773 93.13L414.053 119.97H430.773V93.13ZM460.446 140.65L470.566 128C475.626 132.73 482.776 135.26 489.816 135.26C497.846 135.26 501.806 130.97 501.806 126.24C501.806 121.07 497.956 117.33 490.366 117.33C484.536 117.33 479.916 119.09 475.846 122.83L462.756 119.64V76.63H515.996V92.58H481.016V107.65C485.196 104.13 490.916 101.71 497.406 101.71C509.946 101.71 521.056 110.73 521.056 125.47C521.056 141.31 509.066 151.32 490.036 151.32C477.056 151.32 467.266 147.36 460.446 140.65Z" fill="#F1F2F2"></path>
  <path d="M383.832 167.708C383.832 171.582 386.614 174.312 390.488 174.312C393.062 174.312 394.622 173.194 395.454 172.024L393.296 170.022C392.698 170.854 391.788 171.374 390.644 171.374C388.642 171.374 387.238 169.892 387.238 167.708C387.238 165.524 388.642 164.068 390.644 164.068C391.788 164.068 392.698 164.536 393.296 165.42L395.454 163.392C394.622 162.248 393.062 161.13 390.488 161.13C386.614 161.13 383.832 163.86 383.832 167.708ZM403.065 174.312C407.225 174.312 409.721 171.296 409.721 167.708C409.721 164.146 407.225 161.13 403.065 161.13C398.931 161.13 396.435 164.146 396.435 167.708C396.435 171.296 398.931 174.312 403.065 174.312ZM403.065 171.374C401.011 171.374 399.867 169.684 399.867 167.708C399.867 165.758 401.011 164.068 403.065 164.068C405.119 164.068 406.289 165.758 406.289 167.708C406.289 169.684 405.119 171.374 403.065 171.374ZM420.275 174H423.577V161.442H420.275V169.944C419.703 170.672 418.689 171.374 417.415 171.374C416.011 171.374 415.101 170.802 415.101 169.06V161.442H411.799V170.36C411.799 172.804 413.099 174.312 415.855 174.312C417.909 174.312 419.417 173.376 420.275 172.414V174ZM434.961 174H438.263V165.134C438.263 162.69 436.937 161.13 434.181 161.13C432.127 161.13 430.593 162.118 429.787 163.08V161.442H426.485V174H429.787V165.55C430.333 164.796 431.347 164.068 432.647 164.068C434.051 164.068 434.961 164.666 434.961 166.408V174ZM445.382 174.312C446.76 174.312 447.644 173.948 448.138 173.506L447.436 171.01C447.254 171.192 446.786 171.374 446.292 171.374C445.564 171.374 445.148 170.776 445.148 169.996V164.328H447.696V161.442H445.148V158.01H441.82V161.442H439.74V164.328H441.82V170.88C441.82 173.116 443.068 174.312 445.382 174.312ZM449.584 174H452.886V165.706C453.432 164.9 454.888 164.276 455.98 164.276C456.344 164.276 456.656 164.328 456.89 164.38V161.156C455.33 161.156 453.77 162.04 452.886 163.158V161.442H449.584V174ZM460.219 159.596C461.311 159.596 462.195 158.712 462.195 157.62C462.195 156.528 461.311 155.644 460.219 155.644C459.153 155.644 458.243 156.528 458.243 157.62C458.243 158.712 459.153 159.596 460.219 159.596ZM458.581 174H461.883V161.442H458.581V174ZM463.98 167.708C463.98 171.738 466.866 174.312 470.688 174.312C472.638 174.312 474.614 173.714 475.862 172.57L474.406 170.438C473.6 171.218 472.222 171.686 471.052 171.686C468.92 171.686 467.646 170.36 467.438 168.774H476.772V168.046C476.772 163.938 474.224 161.13 470.48 161.13C466.658 161.13 463.98 164.068 463.98 167.708ZM470.48 163.756C472.664 163.756 473.496 165.342 473.574 166.538H467.386C467.542 165.29 468.426 163.756 470.48 163.756ZM477.694 172.362C479.02 173.584 481.126 174.312 483.31 174.312C486.794 174.312 488.744 172.57 488.744 170.282C488.744 167.162 485.858 166.59 483.7 166.174C482.296 165.888 481.308 165.602 481.308 164.822C481.308 164.094 482.088 163.652 483.284 163.652C484.818 163.652 486.248 164.302 487.002 165.108L488.328 162.846C487.08 161.858 485.39 161.13 483.258 161.13C479.956 161.13 478.11 162.976 478.11 165.082C478.11 168.072 480.892 168.592 483.05 169.008C484.48 169.294 485.572 169.606 485.572 170.49C485.572 171.27 484.896 171.764 483.466 171.764C481.906 171.764 480.034 170.906 479.124 170.048L477.694 172.362Z" fill="#F1F2F2"></path>
  <path d="M226.728 292.524C226.728 298.46 231.264 302.184 236.836 302.184C240.364 302.184 243.08 300.756 245.096 298.544V291.236H236.08V295.24H240.364V296.808C239.608 297.424 238.292 297.928 236.836 297.928C233.784 297.928 231.628 295.576 231.628 292.524C231.628 289.472 233.784 287.12 236.836 287.12C238.6 287.12 240.028 288.1 240.784 289.332L244.816 287.204C243.444 284.88 240.924 282.864 236.836 282.864C231.264 282.864 226.728 286.588 226.728 292.524ZM248.314 294.288C248.314 298.88 251.002 302.184 256.994 302.184C262.986 302.184 265.646 298.908 265.646 294.26V283.172H260.746V294.12C260.746 296.332 259.57 297.928 256.994 297.928C254.39 297.928 253.214 296.332 253.214 294.12V283.172H248.314V294.288ZM281.283 301.848H286.519L279.463 283.172H273.415L266.387 301.848H271.623L272.575 299.02H280.331L281.283 301.848ZM276.439 287.372L279.071 294.96H273.835L276.439 287.372ZM298.714 301.848H304.23L300.422 294.988C302.158 294.372 304.146 292.636 304.146 289.388C304.146 285.916 301.794 283.172 297.65 283.172H288.298V301.848H293.114V295.52H295.578L298.714 301.848ZM299.246 289.332C299.246 290.62 298.182 291.432 296.922 291.432H293.114V287.232H296.922C298.182 287.232 299.246 288.044 299.246 289.332ZM320.118 301.848H325.354L318.298 283.172H312.25L305.222 301.848H310.458L311.41 299.02H319.166L320.118 301.848ZM315.274 287.372L317.906 294.96H312.67L315.274 287.372ZM339.845 301.848H344.493V283.172H339.649V293.924L332.089 283.172H327.133V301.848H331.949V290.564L339.845 301.848ZM352.432 301.848H357.248V287.372H362.456V283.172H347.196V287.372H352.432V301.848ZM365.148 301.848H378.84V297.788H369.964V294.428H378.644V290.34H369.964V287.232H378.84V283.172H365.148V301.848ZM382.036 301.848H395.728V297.788H386.852V294.428H395.532V290.34H386.852V287.232H395.728V283.172H382.036V301.848ZM398.925 301.848H406.793C412.645 301.848 416.873 298.292 416.873 292.496C416.873 286.7 412.645 283.172 406.765 283.172H398.925V301.848ZM403.741 297.648V287.372H406.793C410.209 287.372 411.945 289.612 411.945 292.496C411.945 295.268 410.041 297.648 406.765 297.648H403.741ZM446.244 292.524C446.244 286.84 441.988 282.864 436.276 282.864C430.564 282.864 426.28 286.84 426.28 292.524C426.28 298.208 430.564 302.184 436.276 302.184C437.732 302.184 439.104 301.932 440.336 301.428L441.708 303.108L445.068 300.42L443.892 298.992C445.376 297.312 446.244 295.1 446.244 292.524ZM436.276 297.928C433.168 297.928 431.18 295.548 431.18 292.524C431.18 289.472 433.168 287.12 436.276 287.12C439.356 287.12 441.344 289.472 441.344 292.524C441.344 293.504 441.148 294.4 440.756 295.184L438.824 292.86L435.492 295.548L437.368 297.816C437.032 297.9 436.668 297.928 436.276 297.928ZM449.07 294.288C449.07 298.88 451.758 302.184 457.75 302.184C463.742 302.184 466.402 298.908 466.402 294.26V283.172H461.502V294.12C461.502 296.332 460.326 297.928 457.75 297.928C455.146 297.928 453.97 296.332 453.97 294.12V283.172H449.07V294.288ZM482.038 301.848H487.274L480.218 283.172H474.17L467.142 301.848H472.378L473.33 299.02H481.086L482.038 301.848ZM477.194 287.372L479.826 294.96H474.59L477.194 287.372ZM489.053 301.848H501.373V297.648H493.869V283.172H489.053V301.848ZM504.274 301.848H509.09V283.172H504.274V301.848ZM517.022 301.848H521.838V287.372H527.046V283.172H511.786V287.372H517.022V301.848ZM534.834 301.848H539.65V294.316L546.706 283.172H541.246L537.242 290.06L533.182 283.172H527.75L534.834 294.316V301.848Z" fill="#F1F2F2"></path>
  <path d="M575.617 280.681C574.904 280.781 573.883 281.712 573.313 282.398C572.948 282.813 572.752 283.144 572.607 283.406C572.411 283.737 572.223 284.127 571.611 284.516C568.705 286.681 565.231 288.26 563.769 289.071C563.2 289.333 562.869 289.561 562.91 289.859C563.019 290.631 565.013 290.593 566.346 290.163C567.28 289.911 568.818 289.21 569.786 288.771C570.457 288.374 570.967 288.12 571.272 288.138C571.527 288.223 571.585 288.639 571.397 289.454C570.393 294.381 569.346 299.436 568.562 304.636C568.33 306.001 568.225 307.41 568.24 308.377C568.422 310.108 569.448 310.51 569.983 310.434C570.874 310.309 572.712 307.87 572.579 306.919C572.52 306.503 572.25 305.875 571.836 305.084C571.49 304.345 571.348 303.335 571.665 302.14C573.165 295.567 574.339 290.131 574.99 287.858C575.571 285.959 575.802 285.017 576.797 283.908C577.163 283.493 577.453 282.968 577.242 282.331C577.006 281.516 576.449 280.564 575.617 280.681Z" fill="#F1F2F2"></path>
  <path fill-rule="evenodd" clip-rule="evenodd" d="M595.82 278.872C598.55 278.487 600.79 281.505 601.25 284.773C601.63 287.446 600.55 293.112 599.04 296.596C597.44 300.335 594.48 303.841 592.525 305.449C591.276 306.472 589.45 307.274 588.38 307.425C587.073 307.608 585.861 307.173 584.472 305.914C583.143 304.647 582.434 302.625 582.242 301.259C581.566 296.446 584.104 288.637 587.313 284.308C589.457 281.462 592.281 278.702 593.707 278.502C594.12 278.443 594.45 278.639 594.72 278.844C594.92 278.937 595.34 278.938 595.82 278.872ZM596.85 293.511C597.68 290.424 598.14 287.209 597.89 285.427C597.65 283.704 596.78 280.978 594.7 281.27C594.29 281.329 594.06 281.481 593.945 281.922C593.783 282.49 593.569 283.126 592.567 283.327C591.506 283.537 590.622 284.146 589.26 286.095C587.243 288.984 585.047 295.351 585.715 300.104C586.233 303.788 588.149 304.488 588.922 304.38C590.051 304.221 590.994 303.604 592.193 302.223C593.444 300.775 595.92 296.852 596.85 293.511Z" fill="#F1F2F2"></path>
  <path fill-rule="evenodd" clip-rule="evenodd" d="M617.25 275.86C619.98 275.476 622.22 278.494 622.68 281.761C623.06 284.435 621.97 290.101 620.46 293.585C618.87 297.323 615.91 300.83 613.95 302.437C612.7 303.461 610.88 304.263 609.81 304.413C608.5 304.597 607.29 304.162 605.9 302.903C604.57 301.635 603.86 299.614 603.67 298.248C602.99 293.435 605.53 285.626 608.74 281.297C610.88 278.451 613.71 275.691 615.13 275.491C615.55 275.432 615.88 275.628 616.15 275.832C616.35 275.926 616.77 275.927 617.25 275.86ZM618.27 290.5C619.11 287.413 619.57 284.198 619.32 282.416C619.08 280.693 618.21 277.967 616.13 278.259C615.71 278.318 615.49 278.47 615.37 278.911C615.21 279.479 615 280.115 613.99 280.316C612.93 280.526 612.05 281.135 610.69 283.083C608.67 285.972 606.47 292.34 607.14 297.093C607.66 300.777 609.58 301.477 610.35 301.368C611.48 301.21 612.42 300.593 613.62 299.212C614.87 297.764 617.35 293.841 618.27 290.5Z" fill="#F1F2F2"></path>
  <path fill-rule="evenodd" clip-rule="evenodd" d="M647.78 274.356C647.29 274.426 646.58 275.181 645.91 276.134C645.4 276.811 643.35 279.826 639.92 284.902C638.74 286.675 637.13 289.039 635.5 291.42C632.43 295.925 629.31 300.494 628.99 301.233C628.75 301.72 628.77 302.222 629.09 302.683C629.23 302.966 629.7 303.455 630 303.413C630.35 303.364 630.86 303.04 631.64 302.123C632.34 301.368 632.93 300.528 632.84 299.884C632.73 299.092 632.93 298.357 633.51 297.517C636.61 292.942 638.95 289.482 643 283.813C646.93 278.363 648.25 276.966 648.89 276.522C649.3 276.212 649.53 275.675 649.37 275.244C649.2 274.762 648.57 274.245 647.78 274.356ZM632.2 276.647C631.65 276.724 631.36 277.168 631.04 277.769C630.8 278.054 630.7 278.181 630.57 278.284C630.47 278.366 630.35 278.432 630.14 278.552C629.58 278.833 628.92 279.178 628.17 279.99C626.88 281.585 625.32 284.48 625.61 286.51C625.92 288.738 627.48 289.781 629.46 289.503C631.89 289.162 635.65 286.866 636.68 284.499C637.02 283.644 637.38 282.634 637.19 281.247C636.85 278.821 634.62 276.306 632.2 276.647ZM634.79 281.836C634.61 280.549 634.03 279.267 632.79 279.441C632.15 279.532 631.19 279.869 630.31 280.85C628.51 282.72 627.98 284.713 628.15 285.95C628.27 286.792 629.01 287.395 630.05 287.249C632.28 286.936 635.16 284.411 634.79 281.836ZM647.08 286.623C646.14 286.755 644.34 287.614 642.89 289.838C641.35 292.224 640.88 294.26 641.08 295.646C641.5 298.666 644.32 299.33 645.41 299.177C646.6 299.01 648.82 297.587 650.48 295.689C651.65 294.362 653.14 291.275 652.95 289.938C652.82 289.047 652.44 287.788 650.78 287.062C649.7 286.608 648.32 286.449 647.08 286.623ZM650.43 290.343C650.32 289.55 649.15 288.402 648.26 288.528C647.17 288.681 646.37 289.146 645.33 290.352C644.25 291.665 643.27 293.975 643.41 294.965C643.55 296.005 644.23 296.869 645.32 296.716C646.26 296.584 647.44 296.014 648.48 294.758C649.87 293.198 650.56 291.234 650.43 290.343Z" fill="#F1F2F2"></path>
  <path d="M678.09 150V100.83L665.77 113.26L654.99 101.93L680.62 76.63H697.01V150H678.09ZM701.5 113.37C701.5 94.01 711.51 75.53 732.96 75.53C754.41 75.53 764.42 94.01 764.42 113.37C764.42 132.73 754.41 151.32 732.96 151.32C711.51 151.32 701.5 132.73 701.5 113.37ZM745.28 113.37C745.28 100.39 741.76 92.25 732.96 92.25C724.16 92.25 720.64 100.39 720.64 113.37C720.64 126.35 724.16 134.6 732.96 134.6C741.76 134.6 745.28 126.35 745.28 113.37ZM765.14 113.37C765.14 94.01 775.15 75.53 796.6 75.53C818.05 75.53 828.06 94.01 828.06 113.37C828.06 132.73 818.05 151.32 796.6 151.32C775.15 151.32 765.14 132.73 765.14 113.37ZM808.92 113.37C808.92 100.39 805.4 92.25 796.6 92.25C787.8 92.25 784.28 100.39 784.28 113.37C784.28 126.35 787.8 134.6 796.6 134.6C805.4 134.6 808.92 126.35 808.92 113.37ZM828.78 113.37C828.78 94.01 838.79 75.53 860.24 75.53C881.69 75.53 891.7 94.01 891.7 113.37C891.7 132.73 881.69 151.32 860.24 151.32C838.79 151.32 828.78 132.73 828.78 113.37ZM872.56 113.37C872.56 100.39 869.04 92.25 860.24 92.25C851.44 92.25 847.92 100.39 847.92 113.37C847.92 126.35 851.44 134.6 860.24 134.6C869.04 134.6 872.56 126.35 872.56 113.37Z" fill="#F1F2F2"></path>
  <path d="M681.64 174H684.94V156.658H681.64V174ZM695.01 174H698.31V165.888C698.31 162.274 695.69 161.13 692.83 161.13C690.85 161.13 688.88 161.754 687.34 163.106L688.59 165.316C689.66 164.328 690.9 163.834 692.26 163.834C693.92 163.834 695.01 164.666 695.01 165.94V167.682C694.18 166.668 692.7 166.148 691.03 166.148C689.03 166.148 686.67 167.214 686.67 170.152C686.67 172.96 689.03 174.312 691.03 174.312C692.67 174.312 694.15 173.714 695.01 172.7V174ZM695.01 170.984C694.47 171.712 693.43 172.076 692.36 172.076C691.06 172.076 689.99 171.4 689.99 170.23C689.99 169.008 691.06 168.332 692.36 168.332C693.43 168.332 694.47 168.696 695.01 169.424V170.984ZM709.32 174H712.62V165.134C712.62 162.69 711.3 161.13 708.54 161.13C706.49 161.13 704.95 162.118 704.15 163.08V161.442H700.85V174H704.15V165.55C704.69 164.796 705.71 164.068 707.01 164.068C708.41 164.068 709.32 164.666 709.32 166.408V174ZM714.9 177.224C716.49 178.602 718.15 179.096 720.31 179.096C723.4 179.096 727.09 177.926 727.09 173.142V161.442H723.77V163.054C722.75 161.78 721.4 161.13 719.89 161.13C716.72 161.13 714.35 163.418 714.35 167.526C714.35 171.712 716.75 173.922 719.89 173.922C721.43 173.922 722.78 173.194 723.77 171.946V173.22C723.77 175.69 721.89 176.392 720.31 176.392C718.72 176.392 717.4 175.95 716.38 174.832L714.9 177.224ZM723.77 169.554C723.22 170.36 722.02 170.984 720.93 170.984C719.06 170.984 717.76 169.684 717.76 167.526C717.76 165.368 719.06 164.068 720.93 164.068C722.02 164.068 723.22 164.666 723.77 165.498V169.554ZM738.1 174H741.4V161.442H738.1V169.944C737.53 170.672 736.52 171.374 735.24 171.374C733.84 171.374 732.93 170.802 732.93 169.06V161.442H729.63V170.36C729.63 172.804 730.93 174.312 733.68 174.312C735.74 174.312 737.24 173.376 738.1 172.414V174ZM751.48 174H754.78V165.888C754.78 162.274 752.16 161.13 749.3 161.13C747.32 161.13 745.34 161.754 743.81 163.106L745.06 165.316C746.12 164.328 747.37 163.834 748.72 163.834C750.39 163.834 751.48 164.666 751.48 165.94V167.682C750.65 166.668 749.17 166.148 747.5 166.148C745.5 166.148 743.13 167.214 743.13 170.152C743.13 172.96 745.5 174.312 747.5 174.312C749.14 174.312 750.62 173.714 751.48 172.7V174ZM751.48 170.984C750.93 171.712 749.89 172.076 748.83 172.076C747.53 172.076 746.46 171.4 746.46 170.23C746.46 169.008 747.53 168.332 748.83 168.332C749.89 168.332 750.93 168.696 751.48 169.424V170.984ZM757.05 177.224C758.64 178.602 760.3 179.096 762.46 179.096C765.56 179.096 769.25 177.926 769.25 173.142V161.442H765.92V163.054C764.91 161.78 763.55 161.13 762.05 161.13C758.87 161.13 756.51 163.418 756.51 167.526C756.51 171.712 758.9 173.922 762.05 173.922C763.58 173.922 764.93 173.194 765.92 171.946V173.22C765.92 175.69 764.05 176.392 762.46 176.392C760.88 176.392 759.55 175.95 758.54 174.832L757.05 177.224ZM765.92 169.554C765.37 170.36 764.18 170.984 763.09 170.984C761.21 170.984 759.91 169.684 759.91 167.526C759.91 165.368 761.21 164.068 763.09 164.068C764.18 164.068 765.37 164.666 765.92 165.498V169.554ZM770.97 167.708C770.97 171.738 773.86 174.312 777.68 174.312C779.63 174.312 781.61 173.714 782.86 172.57L781.4 170.438C780.59 171.218 779.22 171.686 778.05 171.686C775.91 171.686 774.64 170.36 774.43 168.774H783.77V168.046C783.77 163.938 781.22 161.13 777.47 161.13C773.65 161.13 770.97 164.068 770.97 167.708ZM777.47 163.756C779.66 163.756 780.49 165.342 780.57 166.538H774.38C774.54 165.29 775.42 163.756 777.47 163.756ZM791.32 174H794.62V156.658H791.32V174ZM802.97 174.312C807.13 174.312 809.63 171.296 809.63 167.708C809.63 164.146 807.13 161.13 802.97 161.13C798.84 161.13 796.34 164.146 796.34 167.708C796.34 171.296 798.84 174.312 802.97 174.312ZM802.97 171.374C800.92 171.374 799.78 169.684 799.78 167.708C799.78 165.758 800.92 164.068 802.97 164.068C805.03 164.068 806.2 165.758 806.2 167.708C806.2 169.684 805.03 171.374 802.97 171.374ZM810.53 167.708C810.53 171.582 813.31 174.312 817.19 174.312C819.76 174.312 821.32 173.194 822.15 172.024L820 170.022C819.4 170.854 818.49 171.374 817.34 171.374C815.34 171.374 813.94 169.892 813.94 167.708C813.94 165.524 815.34 164.068 817.34 164.068C818.49 164.068 819.4 164.536 820 165.42L822.15 163.392C821.32 162.248 819.76 161.13 817.19 161.13C813.31 161.13 810.53 163.86 810.53 167.708ZM831.11 174H834.41V165.888C834.41 162.274 831.79 161.13 828.93 161.13C826.95 161.13 824.97 161.754 823.44 163.106L824.69 165.316C825.75 164.328 827 163.834 828.35 163.834C830.02 163.834 831.11 164.666 831.11 165.94V167.682C830.28 166.668 828.8 166.148 827.13 166.148C825.13 166.148 822.76 167.214 822.76 170.152C822.76 172.96 825.13 174.312 827.13 174.312C828.77 174.312 830.25 173.714 831.11 172.7V174ZM831.11 170.984C830.56 171.712 829.52 172.076 828.46 172.076C827.16 172.076 826.09 171.4 826.09 170.23C826.09 169.008 827.16 168.332 828.46 168.332C829.52 168.332 830.56 168.696 831.11 169.424V170.984ZM836.94 174H840.25V156.658H836.94V174ZM841.97 167.708C841.97 171.738 844.86 174.312 848.68 174.312C850.63 174.312 852.61 173.714 853.85 172.57L852.4 170.438C851.59 171.218 850.21 171.686 849.04 171.686C846.91 171.686 845.64 170.36 845.43 168.774H854.76V168.046C854.76 163.938 852.22 161.13 848.47 161.13C844.65 161.13 841.97 164.068 841.97 167.708ZM848.47 163.756C850.66 163.756 851.49 165.342 851.57 166.538H845.38C845.53 165.29 846.42 163.756 848.47 163.756ZM855.31 172.362C856.64 173.584 858.75 174.312 860.93 174.312C864.41 174.312 866.36 172.57 866.36 170.282C866.36 167.162 863.48 166.59 861.32 166.174C859.92 165.888 858.93 165.602 858.93 164.822C858.93 164.094 859.71 163.652 860.9 163.652C862.44 163.652 863.87 164.302 864.62 165.108L865.95 162.846C864.7 161.858 863.01 161.13 860.88 161.13C857.58 161.13 855.73 162.976 855.73 165.082C855.73 168.072 858.51 168.592 860.67 169.008C862.1 169.294 863.19 169.606 863.19 170.49C863.19 171.27 862.52 171.764 861.09 171.764C859.53 171.764 857.65 170.906 856.74 170.048L855.31 172.362Z" fill="#F1F2F2"></path>
  <path d="M714.18 64.192C716.42 64.192 717.73 63.072 718.54 61.792L716.94 60.976C716.43 61.872 715.41 62.528 714.18 62.528C712.14 62.528 710.58 60.912 710.58 58.672C710.58 56.432 712.14 54.816 714.18 54.816C715.41 54.816 716.43 55.488 716.94 56.368L718.54 55.552C717.74 54.272 716.42 53.152 714.18 53.152C711.1 53.152 708.66 55.392 708.66 58.672C708.66 61.952 711.1 64.192 714.18 64.192ZM723.58 64.192C726.06 64.192 727.57 62.352 727.57 60.128C727.57 57.92 726.06 56.08 723.58 56.08C721.13 56.08 719.61 57.92 719.61 60.128C719.61 62.352 721.13 64.192 723.58 64.192ZM723.58 62.704C722.16 62.704 721.36 61.504 721.36 60.128C721.36 58.768 722.16 57.568 723.58 57.568C725.02 57.568 725.82 58.768 725.82 60.128C725.82 61.504 725.02 62.704 723.58 62.704ZM731.4 64H733.21L736.36 56.272H734.55L732.29 62.064L730.04 56.272H728.25L731.4 64ZM737.03 60.128C737.03 62.576 738.76 64.192 741.08 64.192C742.31 64.192 743.45 63.808 744.22 63.072L743.45 61.968C742.9 62.512 742.01 62.816 741.26 62.816C739.8 62.816 738.92 61.856 738.79 60.688H744.76V60.288C744.76 57.856 743.27 56.08 740.95 56.08C738.66 56.08 737.03 57.888 737.03 60.128ZM740.95 57.456C742.47 57.456 743.1 58.592 743.13 59.504H738.78C738.86 58.56 739.51 57.456 740.95 57.456ZM746.52 64H748.2V58.736C748.54 58.192 749.48 57.712 750.18 57.712C750.39 57.712 750.57 57.728 750.71 57.76V56.096C749.7 56.096 748.78 56.672 748.2 57.408V56.272H746.52V64ZM756.89 64H758.57V58.88C758.57 56.8 757.06 56.08 755.35 56.08C754.12 56.08 753 56.48 752.1 57.328L752.79 58.496C753.46 57.84 754.21 57.52 755.08 57.52C756.15 57.52 756.89 58.064 756.89 58.96V60.112C756.33 59.456 755.43 59.12 754.39 59.12C753.13 59.12 751.7 59.856 751.7 61.632C751.7 63.344 753.13 64.192 754.39 64.192C755.41 64.192 756.31 63.824 756.89 63.168V64ZM756.89 62.24C756.5 62.768 755.78 63.04 755.05 63.04C754.1 63.04 753.4 62.496 753.4 61.664C753.4 60.816 754.1 60.272 755.05 60.272C755.78 60.272 756.5 60.544 756.89 61.072V62.24ZM760.75 65.984C761.69 66.848 762.67 67.136 763.98 67.136C765.88 67.136 767.95 66.384 767.95 63.6V56.272H766.27V57.344C765.64 56.528 764.76 56.08 763.79 56.08C761.8 56.08 760.36 57.552 760.36 60.048C760.36 62.592 761.82 64.016 763.79 64.016C764.8 64.016 765.68 63.504 766.27 62.736V63.664C766.27 65.248 765.08 65.76 763.98 65.76C762.96 65.76 762.16 65.488 761.53 64.768L760.75 65.984ZM766.27 61.488C765.9 62.064 765.07 62.528 764.28 62.528C762.96 62.528 762.11 61.536 762.11 60.048C762.11 58.56 762.96 57.568 764.28 57.568C765.07 57.568 765.9 58.032 766.27 58.608V61.488ZM769.75 60.128C769.75 62.576 771.47 64.192 773.79 64.192C775.03 64.192 776.16 63.808 776.93 63.072L776.16 61.968C775.62 62.512 774.72 62.816 773.97 62.816C772.51 62.816 771.63 61.856 771.51 60.688H777.47V60.288C777.47 57.856 775.99 56.08 773.67 56.08C771.38 56.08 769.75 57.888 769.75 60.128ZM773.67 57.456C775.19 57.456 775.81 58.592 775.84 59.504H771.49C771.57 58.56 772.23 57.456 773.67 57.456ZM783.84 64H785.52V57.744H787.09V56.272H785.52V55.84C785.52 54.976 785.94 54.544 786.59 54.544C786.83 54.544 787.07 54.592 787.27 54.704L787.63 53.472C787.3 53.28 786.82 53.168 786.29 53.168C784.87 53.168 783.84 54.112 783.84 55.84V56.272H782.56V57.744H783.84V64ZM791.95 64.192C794.43 64.192 795.94 62.352 795.94 60.128C795.94 57.92 794.43 56.08 791.95 56.08C789.5 56.08 787.98 57.92 787.98 60.128C787.98 62.352 789.5 64.192 791.95 64.192ZM791.95 62.704C790.53 62.704 789.73 61.504 789.73 60.128C789.73 58.768 790.53 57.568 791.95 57.568C793.39 57.568 794.19 58.768 794.19 60.128C794.19 61.504 793.39 62.704 791.95 62.704ZM797.73 64H799.41V58.736C799.75 58.192 800.69 57.712 801.4 57.712C801.61 57.712 801.78 57.728 801.93 57.76V56.096C800.92 56.096 799.99 56.672 799.41 57.408V56.272H797.73V64ZM811.08 64.192C813.56 64.192 815.06 62.352 815.06 60.128C815.06 57.92 813.56 56.08 811.08 56.08C808.63 56.08 807.11 57.92 807.11 60.128C807.11 62.352 808.63 64.192 811.08 64.192ZM811.08 62.704C809.66 62.704 808.86 61.504 808.86 60.128C808.86 58.768 809.66 57.568 811.08 57.568C812.52 57.568 813.32 58.768 813.32 60.128C813.32 61.504 812.52 62.704 811.08 62.704ZM818.9 64H820.7L823.86 56.272H822.05L819.79 62.064L817.54 56.272H815.74L818.9 64ZM824.53 60.128C824.53 62.576 826.26 64.192 828.58 64.192C829.81 64.192 830.95 63.808 831.71 63.072L830.95 61.968C830.4 62.512 829.51 62.816 828.75 62.816C827.3 62.816 826.42 61.856 826.29 60.688H832.26V60.288C832.26 57.856 830.77 56.08 828.45 56.08C826.16 56.08 824.53 57.888 824.53 60.128ZM828.45 57.456C829.97 57.456 830.59 58.592 830.63 59.504H826.27C826.35 58.56 827.01 57.456 828.45 57.456ZM834.02 64H835.7V58.736C836.03 58.192 836.98 57.712 837.68 57.712C837.89 57.712 838.06 57.728 838.21 57.76V56.096C837.2 56.096 836.27 56.672 835.7 57.408V56.272H834.02V64Z" fill="#F1F2F2"></path>
  <path d="M81 23.699V11C81 5.477 85.477 1 91 1H143.21H254.135C259.657 1 264.135 5.477 264.135 11V222.688C264.135 228.211 268.612 232.688 274.135 232.688H586.281C591.804 232.688 596.28 228.211 596.28 222.688V11C596.28 5.477 600.76 1 606.28 1H699.64H763C768.52 1 773 5.477 773 11V23.699" stroke="#F1F2F2" stroke-width="2" stroke-dasharray="3 5"></path>
</svg>
